<svg width="180" height="44" viewBox="0 0 180 44" fill="none" xmlns="http://www.w3.org/2000/svg">
<ellipse cx="21.7838" cy="22" rx="21.7838" ry="22" fill="#00B8C4"/>
<path d="M27.4142 30.0256C27.2578 30.1737 27.0721 30.233 26.9157 30.2231C26.7691 30.2132 26.6225 30.1935 26.4661 30.1638M27.4142 30.0256V30.5256H27.424H27.5863M27.4142 30.0256L27.424 30.036L27.6586 30.2838L27.758 30.3887C27.7573 30.3894 27.7566 30.3901 27.7558 30.3907C27.7021 30.4414 27.6453 30.4864 27.5863 30.5256M27.4142 30.0256L27.5863 30.5256M27.5863 30.5256C27.3694 30.6699 27.1217 30.7371 26.8842 30.7221L26.8821 30.722C26.7138 30.7106 26.5483 30.6882 26.3766 30.6558M27.5863 30.5256H27.6173L27.7603 30.3956C28.1847 30.0099 28.403 29.3753 28.403 28.7621C28.403 28.5145 28.3661 28.2822 28.3069 28.0668L28.3035 28.0546L28.2996 28.0426C28.2452 27.8778 28.1712 27.6852 28.0511 27.4965L28.029 27.4618L28.0015 27.4312C27.0837 26.4077 26.2496 25.2851 25.51 24.1209L27.5863 30.5256ZM26.3766 30.6558C26.3778 30.656 26.3791 30.6562 26.3803 30.6564L26.4661 30.1638M26.3766 30.6558C26.3754 30.6556 26.3742 30.6553 26.373 30.6551L26.4661 30.1638M26.3766 30.6558C25.1298 30.438 24.4487 29.9485 23.8465 29.5126L23.8459 29.5122C23.2239 29.0607 22.6845 28.6796 21.7839 28.6796C20.8834 28.6796 20.344 29.0607 19.7219 29.5122L19.7214 29.5126L19.7017 29.5269C19.1082 29.9565 18.4259 30.4504 17.1891 30.6562C17.0224 30.6876 16.8619 30.7095 16.7079 30.7211C16.3608 30.7577 16.049 30.6059 15.8197 30.3887C15.4047 29.997 15.1845 29.3693 15.1845 28.7621C15.1845 28.3006 15.3099 27.8415 15.4928 27.5432L15.516 27.5054L15.5455 27.4722C16.4756 26.4263 17.3297 25.2925 18.0782 24.1198L18.0785 24.1193C18.5858 23.3266 19.0562 22.4833 19.4699 21.6575L19.479 21.6394L19.4894 21.6221C19.7536 21.1866 20.1556 20.6949 20.7377 20.4247C21.3463 20.1421 22.0769 20.1362 22.902 20.5433C23.3802 20.7731 23.8114 21.2039 24.1706 21.7266L24.1907 21.756L24.2065 21.7879C24.6009 22.5845 25.0322 23.3682 25.5098 24.1207L26.4661 30.1638M28.4053 27.1713L28.4064 27.1707C28.5508 27.4024 28.6612 27.6461 28.7322 27.8933C28.8074 28.1547 28.8496 28.4439 28.8496 28.7324C28.8496 29.5434 28.5407 30.2791 28.0547 30.7224L28.0544 30.7227C27.7277 31.0212 27.3372 31.1742 26.9548 31.1742H26.9545H26.9541H26.9538H26.9534H26.9531H26.9527H26.9524H26.952H26.9517H26.9514H26.951H26.9507H26.9503H26.95H26.9496H26.9493H26.9489H26.9486H26.9482H26.9479H26.9475H26.9472H26.9468H26.9465H26.9461H26.9458H26.9454H26.9451H26.9447H26.9444H26.944H26.9437H26.9433H26.943H26.9426H26.9423H26.9419H26.9416H26.9412H26.9409H26.9405H26.9402H26.9398H26.9395H26.9391H26.9388H26.9384H26.9381H26.9377H26.9374H26.937H26.9367H26.9363H26.9359H26.9356H26.9352H26.9349H26.9345H26.9342H26.9338H26.9335H26.9331H26.9327H26.9324H26.932H26.9317H26.9313H26.931H26.9306H26.9302H26.9299H26.9295H26.9292H26.9288H26.9285H26.9281H26.9277H26.9274H26.927H26.9267H26.9263H26.926H26.9256H26.9252H26.9249H26.9245H26.9242H26.9238H26.9234H26.9231H26.9227H26.9224H26.922H26.9216H26.9213H26.9209H26.9205H26.9202H26.9198H26.9195H26.9191H26.9187H26.9184H26.918H26.9177H26.9173H26.9169H26.9166H26.9162H26.9158H26.9155H26.9151H26.9148H26.9144H26.914H26.9137H26.9133H26.9129H26.9126H26.9122H26.9118H26.9115H26.9111H26.9107H26.9104H26.91H26.9097H26.9093H26.9089H26.9086H26.9082H26.9078H26.9075H26.9071H26.9067H26.9064H26.906H26.9056H26.9053H26.9049H26.9045H26.9042H26.9038H26.9034H26.9031H26.9027H26.9023H26.902H26.9016H26.9012H26.9009H26.9005H26.9001H26.8998H26.8994H26.899H26.8987H26.8983H26.8979H26.8976H26.8972H26.8968H26.8964H26.8961H26.8957H26.8953H26.895H26.8946H26.8942H26.8939H26.8935H26.8931H26.8928H26.8924H26.892H26.8916H26.8913H26.8909H26.8905H26.8902H26.8898H26.8894H26.8891H26.8887H26.8883H26.888H26.8876H26.8872H26.8868H26.8865H26.8861H26.8857H26.8854H26.885H26.8846H26.8842H26.8839H26.8835H26.8831H26.8828H26.8824H26.882H26.8817H26.8813H26.8809H26.8805H26.8802H26.8798H26.8794H26.8791H26.8787H26.8783H26.8779H26.8776H26.8772H26.8768H26.8765H26.8761H26.8757H26.8753H26.875H26.8746H26.8742H26.8738H26.8735H26.8731H26.8727H26.8724H26.872H26.8716H26.8712H26.8709H26.8705H26.8701H26.8698H26.8694H26.869H26.8686H26.8683H26.8679H26.8675H26.8672H26.8668H26.8664H26.866H26.8657H26.8653H26.8649H26.8645H26.8642H26.8638H26.8634H26.8631H26.8627H26.8623H26.8619H26.8616H26.8612H26.8608H26.8605H26.8601H26.8597H26.8593H26.859H26.8586H26.8582H26.8578H26.8575H26.8571H26.8567H26.8564H26.856H26.8556H26.8552H26.8549H26.8545H26.8541H26.8538H26.8534H26.853H26.8526H26.8523H26.8519H26.8515H26.8511H26.8508H26.8504H26.85H26.8497H26.8493H26.8489H26.8485H26.8482H26.8478H26.8474H26.8471H26.8467H26.8463H26.8459H26.8456H26.8452H26.8448H26.8445H26.8441H26.8437H26.8433H26.843H26.8426H26.8422H26.8419H26.8415H26.8411H26.8407H26.8404H26.84H26.8396H26.8393H26.8389H26.8385H26.8382H26.8378H26.8374H26.837H26.8367H26.8363H26.8359H26.8356H26.8352H26.8348H26.8345H26.8341H26.8337H26.8333H26.833H26.8326H26.8322H26.8319H26.8315H26.8311H26.8308H26.8304H26.83H26.8296H26.8293H26.8289H26.8285H26.8282H26.8278H26.8274H26.8271H26.8267H26.8263H26.826H26.8256H26.8252H26.8249H26.8245H26.8241H26.8238H26.8234H26.823H26.8227H26.8223H26.8219H26.8216H26.8212H26.8208H26.8205H26.8201H26.8197H26.8194H26.819H26.8186H26.8183H26.8179H26.8175H26.8172H26.8168H26.8164H26.8161H26.8157H26.8153H26.815H26.8146H26.8142H26.8139H26.8135H26.8131H26.8128H26.8124H26.812H26.8117H26.8113H26.8109H26.8106H26.8102H26.8099H26.8095H26.8091H26.8088H26.8084H26.808H26.8077H26.8073H26.807H26.8066H26.8062H26.8059H26.8055H26.8051H26.8048H26.8044H26.8041H26.8037H26.8033H26.803H26.8026H26.8023H26.8019H26.8015H26.8012H26.8008H26.8004H26.8001H26.7997H26.7994H26.799H26.7986H26.7983H26.7979H26.7976H26.7972H26.7969H26.7965H26.7961H26.7958H26.7954H26.7951H26.7947H26.7943H26.794H26.7936H26.7933H26.7929H26.7926H26.7922H26.7919H26.7915H26.7911H26.7908H26.7904H26.7901H26.7897H26.7894H26.789H26.7887H26.7883H26.7879H26.7876H26.7872H26.7869H26.7865H26.7862H26.7858H26.7855H26.7851H26.7848H26.7844H26.7841H26.7837H26.7833H26.783C26.6325 31.1654 26.477 31.1411 26.2928 31.1117C24.9527 30.8857 24.2199 30.3555 23.5823 29.8941L23.5755 29.8892L23.5726 29.8871L23.5641 29.8808C23.0377 29.4942 22.5564 29.1406 21.7742 29.1406C20.9919 29.1406 20.5106 29.4942 19.9843 29.8808L19.9758 29.8871L19.9729 29.8892L19.966 29.8941C19.3284 30.3555 18.5956 30.8857 17.2556 31.1117C17.1013 31.1362 16.9466 31.1535 16.7855 31.1715C16.769 31.1733 16.7525 31.1752 16.7359 31.1771C16.3152 31.2196 15.8689 31.0699 15.506 30.7346C15.0247 30.2882 14.7085 29.5493 14.7085 28.7423C14.7085 28.165 14.8716 27.6128 15.1536 27.1815C16.1176 26.0863 16.947 24.9883 17.6793 23.8391C18.1795 23.0611 18.6376 22.2359 19.0542 21.4045L19.0705 21.3719L19.0708 21.3709L19.0733 21.3671L19.0784 21.3594L19.0832 21.3515C19.462 20.7287 20.0119 20.1928 20.6783 19.9241C21.3285 19.6618 22.1339 19.6349 23.0895 20.0997C23.6152 20.357 24.1167 20.8077 24.5659 21.4753C24.5661 21.4757 24.5662 21.476 24.5664 21.4764L24.5677 21.479C24.5727 21.4892 24.584 21.5121 24.6 21.5394C24.9859 22.3272 25.4117 23.0965 25.8873 23.847L25.888 23.848C26.6257 25.0059 27.4631 26.1133 28.3804 27.1405L28.389 27.1501L28.3892 27.1503C28.3904 27.1519 28.392 27.154 28.394 27.1568L28.4028 27.1693L28.4045 27.1718L28.4045 27.1718L28.4053 27.1713Z" fill="white" stroke="white"/>
<path d="M17.2873 18.8113C17.6196 18.9396 17.952 19.0087 18.2843 19.0087C18.7046 19.0087 19.1152 18.9001 19.4768 18.6928C20.1122 18.3177 20.5521 17.6464 20.6791 16.8369C20.7964 16.0768 20.6303 15.2673 20.2197 14.5565C19.34 13.0264 17.5805 12.3847 16.3 13.135C15.0195 13.8853 14.6872 15.7411 15.5572 17.2713C15.9677 17.9919 16.5835 18.5349 17.2873 18.8113ZM17.0331 14.4183C17.17 14.3394 17.3264 14.2999 17.4828 14.2999C18.0009 14.2999 18.5873 14.6849 18.9392 15.2969C19.1836 15.7214 19.2813 16.1953 19.2129 16.6197C19.1836 16.827 19.0761 17.212 18.734 17.4095C18.3918 17.6069 18.0106 17.5082 17.8151 17.4292C17.4241 17.2713 17.0625 16.9455 16.8279 16.5309C16.3685 15.7214 16.4564 14.754 17.0331 14.4183Z" fill="white"/>
<path d="M23.6312 18.6928C23.9928 18.91 24.4034 19.0087 24.8139 19.0087C25.85 19.0087 26.9252 18.3671 27.5508 17.2713C27.9614 16.5506 28.1178 15.7412 28.0102 14.9909C27.893 14.1814 27.4531 13.5101 26.808 13.135C26.1726 12.7599 25.3711 12.7204 24.6184 13.0165C23.9146 13.293 23.2988 13.8458 22.8883 14.5565C22.0085 16.0867 22.3409 17.9426 23.6312 18.6928ZM24.159 15.2969C24.4034 14.8724 24.765 14.5467 25.1462 14.3986C25.2538 14.3591 25.4297 14.2999 25.6154 14.2999C25.7621 14.2999 25.9184 14.3295 26.0651 14.4183C26.4072 14.6158 26.5147 15.0008 26.544 15.2081C26.6125 15.6227 26.5049 16.1064 26.2703 16.5309C25.8109 17.3404 24.9312 17.7451 24.3545 17.4095C23.7778 17.0738 23.6898 16.1064 24.1492 15.2969H24.159Z" fill="white"/>
<path d="M30.2975 18.9791C29.7696 18.6731 29.1147 18.6336 28.4989 18.8804C27.932 19.1075 27.4432 19.5418 27.1109 20.1144C26.4071 21.3484 26.6808 22.8588 27.7365 23.4708C28.0395 23.6485 28.3718 23.7275 28.7139 23.7275C29.5546 23.7275 30.4245 23.2141 30.9328 22.3356C31.6366 21.1016 31.3629 19.5912 30.3072 18.9791H30.2975ZM29.6523 21.5952C29.3591 22.1085 28.8019 22.3849 28.4696 22.1875C28.1275 21.99 28.0884 21.3681 28.3816 20.8548C28.538 20.5784 28.7824 20.3612 29.0365 20.2625C29.1049 20.2329 29.2027 20.2032 29.32 20.2032C29.3982 20.2032 29.4862 20.223 29.5644 20.2625C29.9065 20.4599 29.9456 21.0818 29.6523 21.5952Z" fill="white"/>
<path d="M15.9092 23.4608C16.9551 22.8488 17.2385 21.3482 16.5347 20.1044C15.831 18.8704 14.3941 18.3571 13.3482 18.9691C12.3023 19.5812 12.0188 21.0817 12.7226 22.3256C13.2211 23.2041 14.1008 23.7175 14.9317 23.7175C15.2738 23.7175 15.6061 23.6385 15.9092 23.4608ZM13.9933 21.5852C13.7001 21.0718 13.7392 20.4499 14.0813 20.2525C14.1595 20.213 14.2377 20.1932 14.3354 20.1932C14.658 20.1932 15.0392 20.4499 15.2738 20.8448C15.567 21.3581 15.5279 21.98 15.1858 22.1775C14.8437 22.3749 14.2963 22.0985 14.0031 21.5852H13.9933Z" fill="white"/>
<path d="M67.728 24.5016C68.624 24.6616 69.384 25.1336 70.008 25.9176C70.632 26.7016 70.944 27.5896 70.944 28.5816C70.944 29.4296 70.72 30.1976 70.272 30.8856C69.84 31.5576 69.208 32.0936 68.376 32.4936C67.544 32.8776 66.576 33.0696 65.472 33.0696H58.8V16.3896H65.16C66.296 16.3896 67.272 16.5816 68.088 16.9656C68.904 17.3496 69.52 17.8696 69.936 18.5256C70.352 19.1656 70.56 19.8856 70.56 20.6856C70.56 21.6456 70.304 22.4456 69.792 23.0856C69.28 23.7256 68.592 24.1976 67.728 24.5016ZM61.536 23.3976H64.92C65.816 23.3976 66.512 23.1976 67.008 22.7976C67.52 22.3816 67.776 21.7896 67.776 21.0216C67.776 20.2696 67.52 19.6856 67.008 19.2696C66.512 18.8376 65.816 18.6216 64.92 18.6216H61.536V23.3976ZM65.232 30.8376C66.16 30.8376 66.888 30.6136 67.416 30.1656C67.944 29.7176 68.208 29.0936 68.208 28.2936C68.208 27.4776 67.928 26.8296 67.368 26.3496C66.808 25.8696 66.064 25.6296 65.136 25.6296H61.536V30.8376H65.232ZM75.3092 18.0936C74.8132 18.0936 74.3972 17.9256 74.0612 17.5896C73.7252 17.2536 73.5572 16.8376 73.5572 16.3416C73.5572 15.8456 73.7252 15.4296 74.0612 15.0936C74.3972 14.7576 74.8132 14.5896 75.3092 14.5896C75.7892 14.5896 76.1972 14.7576 76.5332 15.0936C76.8692 15.4296 77.0372 15.8456 77.0372 16.3416C77.0372 16.8376 76.8692 17.2536 76.5332 17.5896C76.1972 17.9256 75.7892 18.0936 75.3092 18.0936ZM76.6532 19.8456V33.0696H73.9172V19.8456H76.6532ZM83.4373 22.0776V29.3976C83.4373 29.8936 83.5493 30.2536 83.7733 30.4776C84.0133 30.6856 84.4133 30.7896 84.9733 30.7896H86.6533V33.0696H84.4933C83.2613 33.0696 82.3173 32.7816 81.6613 32.2056C81.0053 31.6296 80.6773 30.6936 80.6773 29.3976V22.0776H79.1173V19.8456H80.6773V16.5576H83.4373V19.8456H86.6533V22.0776H83.4373ZM91.599 30.8376H97.599V33.0696H88.431V30.8376L94.455 22.0776H88.431V19.8456H97.599V22.0776L91.599 30.8376ZM112.592 26.1336C112.592 26.6296 112.56 27.0776 112.496 27.4776H102.392C102.472 28.5336 102.864 29.3816 103.568 30.0216C104.272 30.6616 105.136 30.9816 106.16 30.9816C107.632 30.9816 108.672 30.3656 109.28 29.1336H112.232C111.832 30.3496 111.104 31.3496 110.048 32.1336C109.008 32.9016 107.712 33.2856 106.16 33.2856C104.896 33.2856 103.76 33.0056 102.752 32.4456C101.76 31.8696 100.976 31.0696 100.4 30.0456C99.8399 29.0056 99.5599 27.8056 99.5599 26.4456C99.5599 25.0856 99.8319 23.8936 100.376 22.8696C100.936 21.8296 101.712 21.0296 102.704 20.4696C103.712 19.9096 104.864 19.6296 106.16 19.6296C107.408 19.6296 108.52 19.9016 109.496 20.4456C110.472 20.9896 111.232 21.7576 111.776 22.7496C112.32 23.7256 112.592 24.8536 112.592 26.1336ZM109.736 25.2696C109.72 24.2616 109.36 23.4536 108.656 22.8456C107.952 22.2376 107.08 21.9336 106.04 21.9336C105.096 21.9336 104.288 22.2376 103.616 22.8456C102.944 23.4376 102.544 24.2456 102.416 25.2696H109.736ZM121.956 19.6296C122.996 19.6296 123.924 19.8456 124.74 20.2776C125.572 20.7096 126.22 21.3496 126.684 22.1976C127.148 23.0456 127.38 24.0696 127.38 25.2696V33.0696H124.668V25.6776C124.668 24.4936 124.372 23.5896 123.78 22.9656C123.188 22.3256 122.38 22.0056 121.356 22.0056C120.332 22.0056 119.516 22.3256 118.908 22.9656C118.316 23.5896 118.02 24.4936 118.02 25.6776V33.0696H115.284V19.8456H118.02V21.3576C118.468 20.8136 119.036 20.3896 119.724 20.0856C120.428 19.7816 121.172 19.6296 121.956 19.6296ZM148.769 21.3576C148.769 22.2056 148.569 23.0056 148.169 23.7576C147.769 24.5096 147.129 25.1256 146.249 25.6056C145.369 26.0696 144.241 26.3016 142.865 26.3016H139.841V33.0696H137.105V16.3896H142.865C144.145 16.3896 145.225 16.6136 146.105 17.0616C147.001 17.4936 147.665 18.0856 148.097 18.8376C148.545 19.5896 148.769 20.4296 148.769 21.3576ZM142.865 24.0696C143.905 24.0696 144.681 23.8376 145.193 23.3736C145.705 22.8936 145.961 22.2216 145.961 21.3576C145.961 19.5336 144.929 18.6216 142.865 18.6216H139.841V24.0696H142.865ZM163.498 26.1336C163.498 26.6296 163.466 27.0776 163.402 27.4776H153.298C153.378 28.5336 153.77 29.3816 154.474 30.0216C155.178 30.6616 156.042 30.9816 157.066 30.9816C158.538 30.9816 159.578 30.3656 160.186 29.1336H163.138C162.738 30.3496 162.01 31.3496 160.954 32.1336C159.914 32.9016 158.618 33.2856 157.066 33.2856C155.802 33.2856 154.666 33.0056 153.658 32.4456C152.666 31.8696 151.882 31.0696 151.306 30.0456C150.746 29.0056 150.466 27.8056 150.466 26.4456C150.466 25.0856 150.738 23.8936 151.282 22.8696C151.842 21.8296 152.618 21.0296 153.61 20.4696C154.618 19.9096 155.77 19.6296 157.066 19.6296C158.314 19.6296 159.426 19.9016 160.402 20.4456C161.378 20.9896 162.138 21.7576 162.682 22.7496C163.226 23.7256 163.498 24.8536 163.498 26.1336ZM160.642 25.2696C160.626 24.2616 160.266 23.4536 159.562 22.8456C158.858 22.2376 157.986 21.9336 156.946 21.9336C156.002 21.9336 155.194 22.2376 154.522 22.8456C153.85 23.4376 153.45 24.2456 153.322 25.2696H160.642ZM169.383 22.0776V29.3976C169.383 29.8936 169.495 30.2536 169.719 30.4776C169.959 30.6856 170.359 30.7896 170.919 30.7896H172.599V33.0696H170.439C169.207 33.0696 168.263 32.7816 167.607 32.2056C166.951 31.6296 166.623 30.6936 166.623 29.3976V22.0776H165.063V19.8456H166.623V16.5576H169.383V19.8456H172.599V22.0776H169.383Z" fill="#00B8C4"/>
</svg>
